<svg width="31" height="30" viewBox="0 0 31 30" fill="none" xmlns="http://www.w3.org/2000/svg">
<rect x="0.5" width="30" height="30" rx="4" fill="#EBFFED"/>
<path d="M19.4397 13.089H13.3071C13.0688 13.089 12.8755 12.912 12.8755 12.6936C12.8755 12.4752 13.0687 12.2981 13.3071 12.2981H19.4394C19.6778 12.2981 19.8711 12.4751 19.8711 12.6936C19.8711 12.912 19.6778 13.089 19.4396 13.089H19.4397Z" fill="#58D365" fill-opacity="0.7"/>
<path d="M19.4397 15.9616H13.3071C13.0688 15.9616 12.8755 15.7846 12.8755 15.5661C12.8755 15.3477 13.0687 15.1707 13.3071 15.1707H19.4394C19.6778 15.1707 19.8711 15.3477 19.8711 15.5661C19.8711 15.7846 19.6778 15.9616 19.4396 15.9616H19.4397Z" fill="#58D365" fill-opacity="0.7"/>
<path d="M13.3705 18.6496C13.1321 18.6496 12.9388 18.4726 12.9388 18.2541C12.9388 18.0357 13.132 17.8586 13.3705 17.8586C15.6801 17.8586 17.6312 16.7554 17.6312 15.4496C17.6312 14.1437 15.68 13.0404 13.3705 13.0404C13.1321 13.0404 12.9388 12.8634 12.9388 12.645C12.9388 12.4266 13.132 12.2495 13.3705 12.2495C16.2439 12.2495 18.4946 13.6552 18.4946 15.4495C18.4946 17.2438 16.2439 18.6495 13.3705 18.6495V18.6496Z" fill="#58D365" fill-opacity="0.7"/>
<path d="M17.9822 23.3012C17.8673 23.3012 17.7526 23.2594 17.6676 23.1766L13.1097 18.7338C12.9464 18.5746 12.9549 18.3244 13.1286 18.1748C13.3022 18.0254 13.5753 18.0332 13.7387 18.1921L18.2966 22.635C18.4599 22.7942 18.4514 23.0444 18.2777 23.1939C18.1943 23.2656 18.0881 23.3012 17.9821 23.3012L17.9822 23.3012Z" fill="#58D365" fill-opacity="0.7"/>
<path d="M4.53194 15.2112H6.61574V26.3248C6.61574 26.7138 6.92137 27.0194 7.31033 27.0194H25.3699C25.7589 27.0194 26.0645 26.7138 26.0645 26.3248V15.2112H28.1483C28.7595 15.2112 29.0652 14.461 28.6483 14.0166L16.8401 2.20844C16.5622 1.93052 16.1178 1.93052 15.8676 2.20844L4.03213 14.0166C3.61525 14.461 3.92088 15.2112 4.53214 15.2112H4.53194ZM16.3401 3.68089L26.4813 13.822H25.37C24.981 13.822 24.6754 14.1277 24.6754 14.5166V25.6302H8.00503V14.5166C8.00503 14.1277 7.6994 13.822 7.31043 13.822H6.19917L16.3401 3.68089Z" fill="#58D365" fill-opacity="0.7"/>
</svg>
