<svg width="365" height="183" viewBox="0 0 365 183" fill="none" xmlns="http://www.w3.org/2000/svg">
<g filter="url(#filter0_d_83_2648)">
<path d="M40.9121 79.4336C41.8691 79.4336 42.8652 79.6045 43.9004 79.9463C44.9453 80.2783 45.7461 80.9326 46.3027 81.9092C46.752 82.6904 46.9766 83.6377 46.9766 84.751C46.957 85.8057 46.6543 86.7432 46.0684 87.5635C45.6484 88.1787 44.999 88.6865 44.1201 89.0869C45.5068 89.5361 46.5225 90.3125 47.167 91.416C47.6553 92.2852 47.8994 93.3301 47.8994 94.5508C47.8799 95.7129 47.5479 96.748 46.9033 97.6562C46.3467 98.4473 45.5605 99.0381 44.5449 99.4287C43.5293 99.8096 42.5967 100 41.7471 100H32.5625C32.3574 100 32.2549 99.8975 32.2549 99.6924C32.2549 99.4482 32.499 99.2383 32.9873 99.0625C33.4756 98.8867 33.7197 98.4863 33.7197 97.8613V81.5723C33.7197 80.957 33.4756 80.5615 32.9873 80.3857C32.499 80.21 32.2549 79.9951 32.2549 79.7412C32.2549 79.5361 32.3574 79.4336 32.5625 79.4336H40.9121ZM36.3564 89.9365V98.9307H39.667C40.3799 98.9307 41.0977 98.8281 41.8203 98.623C42.5527 98.4082 43.1826 98.042 43.71 97.5244C44.5205 96.7334 44.9258 95.6885 44.9258 94.3896C44.9258 93.1396 44.501 92.0947 43.6514 91.2549C42.7334 90.376 41.5078 89.9365 39.9746 89.9365H36.3564ZM36.3564 88.6621H40.3994C41.5518 88.5352 42.4795 88.1348 43.1826 87.4609C43.915 86.748 44.2812 85.8008 44.2812 84.6191C44.2812 83.4668 43.8955 82.5195 43.124 81.7773C42.2939 80.9863 41.1904 80.5908 39.8135 80.5908H36.3564V88.6621ZM65.0996 80.1074C62.1016 80.1172 60.0068 81.0645 58.8154 82.9492C57.624 84.8242 57.0283 87.0801 57.0283 89.7168C57.0283 92.3633 57.7754 94.624 59.2695 96.499C60.7637 98.3643 62.707 99.3066 65.0996 99.3262H65.1729C67.5068 99.3262 69.4258 98.3301 70.9297 96.3379C72.4141 94.3652 73.1562 92.1875 73.1562 89.8047V89.7168C73.1367 87.2852 72.502 85.0781 71.252 83.0957C70.002 81.1035 67.9512 80.1074 65.0996 80.1074ZM65.0996 78.8184H65.2461C68.4004 78.8184 71.0615 79.7852 73.2295 81.7188C75.251 83.5254 76.2617 85.9082 76.2617 88.8672C76.2617 89.1309 76.252 89.3994 76.2324 89.6729C76.0273 93.0322 74.8604 95.6396 72.7314 97.4951C70.6123 99.3408 68.0586 100.347 65.0703 100.513C64.8457 100.522 64.6211 100.527 64.3965 100.527C61.6816 100.527 59.2793 99.5898 57.1895 97.7148C55.041 95.8008 53.9668 93.2959 53.9668 90.2002C53.9668 90.0244 53.9717 89.8486 53.9814 89.6729C54.0986 86.3428 55.1729 83.7109 57.2041 81.7773C59.2451 79.8438 61.877 78.8574 65.0996 78.8184ZM87.0898 81.499L93.3008 97.4072L99.9512 83.7842C100.078 83.5303 100.142 83.3008 100.142 83.0957C100.142 82.9199 100.098 82.7637 100.01 82.627C99.8242 82.334 99.5361 81.9531 99.1455 81.4844L98.4277 80.6494L100.244 79.2725C100.322 79.2041 100.405 79.1699 100.493 79.1699C100.591 79.1699 100.698 79.2188 100.815 79.3164L102.017 80.5469C102.271 80.8105 102.397 81.1328 102.397 81.5137C102.397 81.7285 102.358 81.958 102.28 82.2021C102.046 82.8955 101.699 83.7109 101.24 84.6484L94.0625 99.5312C93.9941 99.6973 93.9258 99.8242 93.8574 99.9121C93.7793 99.9707 93.7012 100 93.623 100H91.4111C91.3135 100 91.2354 99.9609 91.1768 99.8828C91.1475 99.8535 91.0938 99.7412 91.0156 99.5459C90.9473 99.3506 90.8984 99.209 90.8691 99.1211L85.332 83.7402C84.9414 82.7051 84.6582 81.9824 84.4824 81.5723C84.3066 81.2109 84.0186 80.8838 83.6182 80.5908C83.3838 80.4443 83.1543 80.3271 82.9297 80.2393C82.7148 80.1416 82.5391 80.0439 82.4023 79.9463C82.3145 79.8975 82.2559 79.8291 82.2266 79.7412C82.1973 79.7021 82.1826 79.6582 82.1826 79.6094C82.1826 79.5801 82.1924 79.5508 82.2119 79.5215C82.251 79.4629 82.3096 79.4336 82.3877 79.4336H87.3535C87.4414 79.4336 87.5293 79.4629 87.6172 79.5215C87.7051 79.5996 87.7637 79.6729 87.793 79.7412C87.8027 79.7705 87.8076 79.7949 87.8076 79.8145C87.8076 79.9121 87.7539 80.0098 87.6465 80.1074C87.5488 80.1953 87.4365 80.293 87.3096 80.4004C87.1924 80.498 87.1045 80.6201 87.0459 80.7666C87.0068 80.8643 86.9873 80.9668 86.9873 81.0742C86.9873 81.2109 87.0215 81.3525 87.0898 81.499ZM113.899 81.5869V97.8467C113.899 98.4912 114.144 98.9014 114.632 99.0771C115.12 99.2432 115.364 99.4482 115.364 99.6924C115.364 99.8975 115.262 100 115.057 100H110.091C109.896 100 109.798 99.8975 109.798 99.6924C109.798 99.4482 110.042 99.2432 110.53 99.0771C111.019 98.9014 111.263 98.4961 111.263 97.8613V81.5869C111.263 80.9521 111.019 80.5518 110.53 80.3857C110.042 80.21 109.798 79.9951 109.798 79.7412C109.798 79.5361 109.9 79.4336 110.105 79.4336H115.057C115.262 79.4336 115.364 79.5361 115.364 79.7412C115.364 79.9951 115.12 80.21 114.632 80.3857C114.144 80.5518 113.899 80.9521 113.899 81.5869ZM128.521 98.623H134.776C135.685 98.623 136.451 98.2764 137.076 97.583C137.711 96.8799 138.189 96.333 138.512 95.9424C138.688 95.7275 138.824 95.6201 138.922 95.6201C139.127 95.6201 139.229 95.7227 139.229 95.9277C139.229 96.0547 139.22 96.1572 139.2 96.2354L138.131 100H124.713C124.508 100 124.405 99.8975 124.405 99.6924C124.405 99.4482 124.649 99.2432 125.138 99.0771C125.626 98.9014 125.87 98.4961 125.87 97.8613V81.5869C125.87 80.9619 125.626 80.5615 125.138 80.3857C124.649 80.21 124.405 79.9951 124.405 79.7412C124.405 79.5361 124.508 79.4336 124.713 79.4336H129.679C129.874 79.4336 129.972 79.5361 129.972 79.7412C129.972 79.9951 129.728 80.21 129.239 80.3857C128.751 80.5615 128.507 80.9619 128.507 81.5869L128.521 98.623ZM151.347 81.5869V97.8467C151.347 98.4912 151.591 98.9014 152.079 99.0771C152.567 99.2432 152.812 99.4482 152.812 99.6924C152.812 99.8975 152.709 100 152.504 100H147.538C147.343 100 147.245 99.8975 147.245 99.6924C147.245 99.4482 147.489 99.2432 147.978 99.0771C148.466 98.9014 148.71 98.4961 148.71 97.8613V81.5869C148.71 80.9521 148.466 80.5518 147.978 80.3857C147.489 80.21 147.245 79.9951 147.245 79.7412C147.245 79.5361 147.348 79.4336 147.553 79.4336H152.504C152.709 79.4336 152.812 79.5361 152.812 79.7412C152.812 79.9951 152.567 80.21 152.079 80.3857C151.591 80.5518 151.347 80.9521 151.347 81.5869ZM163.01 91.3867V81.5723C163.01 80.9473 162.766 80.5518 162.277 80.3857C161.789 80.21 161.545 79.9951 161.545 79.7412C161.545 79.5361 161.647 79.4336 161.853 79.4336H166.818C167.014 79.4336 167.111 79.5361 167.111 79.7412C167.111 79.9951 166.872 80.2051 166.394 80.3711C165.915 80.5273 165.676 80.918 165.676 81.543V89.4385C165.676 90.9326 165.725 92.2559 165.822 93.4082C165.92 94.5605 166.174 95.5322 166.584 96.3232C166.984 97.1143 167.6 97.7148 168.43 98.125C169.26 98.5352 170.407 98.7402 171.872 98.7402C174.45 98.7402 176.198 97.7246 177.116 95.6934C177.771 94.2676 178.098 92.1826 178.098 89.4385V81.5869C178.098 80.9619 177.854 80.5615 177.365 80.3857C176.877 80.21 176.633 79.9951 176.633 79.7412C176.633 79.5361 176.735 79.4336 176.94 79.4336H180.676C180.871 79.4336 180.969 79.5361 180.969 79.7412C180.969 79.9951 180.725 80.21 180.236 80.3857C179.758 80.5615 179.519 80.9619 179.519 81.5869V91.3867C179.509 92.8418 179.372 94.1748 179.108 95.3857C178.854 96.5869 178.381 97.5977 177.688 98.418C176.447 99.8535 174.509 100.571 171.872 100.571C170.202 100.571 168.781 100.415 167.609 100.103C166.438 99.79 165.5 99.2236 164.797 98.4033C163.605 97.0264 163.01 94.6875 163.01 91.3867ZM194.683 99.1943C195.474 99.1455 196.23 98.9404 196.953 98.5791C197.686 98.208 198.271 97.6709 198.711 96.9678C199.17 96.2354 199.399 95.3516 199.399 94.3164V94.1553C199.37 93.0518 198.95 92.207 198.14 91.6211C197.769 91.3477 197.319 91.1328 196.792 90.9766C195.757 90.6934 194.697 90.4932 193.613 90.376C192.539 90.2588 191.519 89.9658 190.552 89.4971C189.683 89.0869 189.033 88.4863 188.604 87.6953C188.174 86.8945 187.959 86.0254 187.959 85.0879C187.959 83.252 188.599 81.7529 189.878 80.5908C191.187 79.3799 192.837 78.7744 194.829 78.7744H195.269C197.446 78.8721 199.297 79.4141 200.82 80.4004L200.469 83.4766C200.449 83.6523 200.356 83.7402 200.19 83.7402H200.132C200.005 83.7305 199.883 83.5938 199.766 83.3301C199.346 82.4512 198.735 81.7041 197.935 81.0889C197.134 80.4639 196.27 80.1318 195.342 80.0928H195.107C194.209 80.0928 193.408 80.2539 192.705 80.5762C192.246 80.8105 191.88 81.0693 191.606 81.3525C191.353 81.626 191.128 81.9629 190.933 82.3633C190.776 82.6855 190.654 83.0615 190.566 83.4912C190.498 83.8037 190.464 84.1016 190.464 84.3848C190.464 84.7656 190.522 85.1172 190.64 85.4395C190.845 86.0938 191.196 86.5967 191.694 86.9482C192.075 87.2314 192.49 87.4268 192.939 87.5342C193.184 87.6025 193.481 87.6709 193.833 87.7393C194.185 87.7979 194.551 87.8564 194.932 87.915C195.488 88.0029 196.074 88.0957 196.689 88.1934C197.314 88.2812 197.92 88.4131 198.506 88.5889C199.482 88.9014 200.21 89.3164 200.688 89.834C201.04 90.2344 201.328 90.6738 201.553 91.1523C201.816 91.7969 201.948 92.5049 201.948 93.2764C201.948 95.3662 201.099 97.1045 199.399 98.4912C198.521 99.2139 197.549 99.7461 196.484 100.088C195.625 100.361 194.707 100.518 193.73 100.557C193.516 100.566 193.306 100.571 193.101 100.571C191.743 100.571 190.444 100.381 189.204 100L187.812 96.1328C187.793 96.084 187.783 96.0352 187.783 95.9863C187.783 95.8887 187.817 95.791 187.886 95.6934C187.964 95.5664 188.066 95.5029 188.193 95.5029C188.311 95.5322 188.433 95.6738 188.56 95.9277C189.185 97.2852 189.971 98.1934 190.918 98.6523C191.699 99.0332 192.69 99.2236 193.892 99.2236C194.146 99.2236 194.409 99.2139 194.683 99.1943ZM244.522 81.5869V97.8613C244.522 98.4961 244.767 98.9014 245.255 99.0771C245.753 99.2432 246.002 99.4482 246.002 99.6924C246.002 99.8975 245.899 100 245.694 100H240.729C240.523 100 240.421 99.8975 240.421 99.6924C240.421 99.4482 240.665 99.2432 241.153 99.0771C241.642 98.9014 241.886 98.4961 241.886 97.8613V82.1729L233.434 100.439H232.862L224.498 82.8613V97.8613C224.498 98.4961 224.742 98.9014 225.23 99.0771C225.719 99.2432 225.963 99.4482 225.963 99.6924C225.963 99.8975 225.86 100 225.655 100H221.935C221.729 100 221.627 99.8975 221.627 99.6924C221.627 99.4482 221.871 99.2432 222.359 99.0771C222.848 98.9014 223.092 98.4961 223.092 97.8613V81.5869C223.092 80.9619 222.848 80.5615 222.359 80.3857C221.871 80.21 221.627 79.9951 221.627 79.7412C221.627 79.5361 221.729 79.4336 221.935 79.4336H225.831L233.844 95.8691L241.607 79.4336H245.694C245.899 79.4336 246.002 79.5361 246.002 79.7412C246.002 79.9951 245.753 80.21 245.255 80.3857C244.767 80.5615 244.522 80.9619 244.522 81.5869ZM258.5 98.623H264.755C265.663 98.623 266.43 98.2764 267.055 97.583C267.689 96.8799 268.168 96.333 268.49 95.9424C268.666 95.7275 268.803 95.6201 268.9 95.6201C269.105 95.6201 269.208 95.7227 269.208 95.9277C269.208 96.0547 269.198 96.1572 269.179 96.2354L268.109 100H254.647C254.472 100 254.384 99.8975 254.384 99.6924C254.384 99.4482 254.628 99.2432 255.116 99.0771C255.604 98.9014 255.849 98.4961 255.849 97.8613V81.5869C255.849 80.9521 255.604 80.5518 255.116 80.3857C254.628 80.21 254.384 79.9951 254.384 79.7412C254.384 79.5361 254.486 79.4336 254.691 79.4336H268.285V83.1982C268.285 83.4033 268.183 83.5059 267.978 83.5059C267.88 83.5059 267.699 83.3105 267.436 82.9199C266.947 82.2461 266.522 81.7236 266.161 81.3525C265.81 80.9814 265.341 80.7959 264.755 80.7959H258.5V88.75H261.854C262.479 88.75 262.89 88.501 263.085 88.0029C263.28 87.4951 263.505 87.2412 263.759 87.2412C263.954 87.2412 264.052 87.3438 264.052 87.5488V91.2695C264.052 91.4746 263.954 91.5771 263.759 91.5771C263.505 91.5771 263.266 91.3281 263.041 90.8301C262.816 90.332 262.392 90.083 261.767 90.083H258.5V98.623ZM281.325 81.5869V97.8467C281.325 98.4912 281.569 98.9014 282.058 99.0771C282.546 99.2432 282.79 99.4482 282.79 99.6924C282.79 99.8975 282.688 100 282.482 100H277.517C277.321 100 277.224 99.8975 277.224 99.6924C277.224 99.4482 277.468 99.2432 277.956 99.0771C278.444 98.9014 278.688 98.4961 278.688 97.8613V81.5869C278.688 80.9521 278.444 80.5518 277.956 80.3857C277.468 80.21 277.224 79.9951 277.224 79.7412C277.224 79.5361 277.326 79.4336 277.531 79.4336H282.482C282.688 79.4336 282.79 79.5361 282.79 79.7412C282.79 79.9951 282.546 80.21 282.058 80.3857C281.569 80.5518 281.325 80.9521 281.325 81.5869ZM311.533 88.4131C311.553 88.7354 311.562 89.0479 311.562 89.3506C311.562 90.9717 311.265 92.4268 310.669 93.7158C309.946 95.2588 308.94 96.5283 307.651 97.5244C305.464 99.2041 302.798 100.063 299.653 100.103H298.481C297.915 100.103 297.383 100.098 296.885 100.088H295.171C294.36 100.088 293.745 100.073 293.325 100.044H292.974C292.583 100.044 292.075 100.073 291.45 100.132C291.245 100.132 291.143 100.024 291.143 99.8096C291.143 99.5654 291.387 99.3555 291.875 99.1797C292.363 99.0039 292.607 98.5986 292.607 97.9639V81.5137C292.607 80.8887 292.363 80.4932 291.875 80.3271C291.387 80.1514 291.143 79.9365 291.143 79.6826C291.143 79.4775 291.245 79.375 291.45 79.375C291.86 79.3848 292.275 79.3896 292.695 79.3896C293.105 79.3896 293.525 79.3848 293.955 79.375C294.795 79.3457 295.615 79.3213 296.416 79.3018H297.28C298.774 79.3018 300.278 79.3408 301.792 79.4189C303.579 79.5264 305.19 79.8877 306.626 80.5029C307.974 81.0986 309.092 82.0166 309.98 83.2568C310.869 84.4873 311.387 86.2061 311.533 88.4131ZM295.405 80.7666V98.5352C296.616 98.7598 297.778 98.8721 298.892 98.8721C299.321 98.8721 299.741 98.8574 300.151 98.8281C301.646 98.7109 302.969 98.3496 304.121 97.7441C305.498 97.0215 306.582 95.918 307.373 94.4336C308.096 93.0664 308.457 91.3281 308.457 89.2188V88.7354C308.418 87.1533 308.135 85.8301 307.607 84.7656C307.09 83.6914 306.401 82.832 305.542 82.1875C304.282 81.25 302.754 80.6982 300.957 80.5322C300.342 80.4834 299.722 80.459 299.097 80.459C297.896 80.459 296.665 80.5615 295.405 80.7666ZM323.665 81.5869V97.8467C323.665 98.4912 323.909 98.9014 324.397 99.0771C324.886 99.2432 325.13 99.4482 325.13 99.6924C325.13 99.8975 325.027 100 324.822 100H319.856C319.661 100 319.563 99.8975 319.563 99.6924C319.563 99.4482 319.808 99.2432 320.296 99.0771C320.784 98.9014 321.028 98.4961 321.028 97.8613V81.5869C321.028 80.9521 320.784 80.5518 320.296 80.3857C319.808 80.21 319.563 79.9951 319.563 79.7412C319.563 79.5361 319.666 79.4336 319.871 79.4336H324.822C325.027 79.4336 325.13 79.5361 325.13 79.7412C325.13 79.9951 324.886 80.21 324.397 80.3857C323.909 80.5518 323.665 80.9521 323.665 81.5869Z" fill="black"/>
</g>
<mask id="mask0_83_2648" style="mask-type:alpha" maskUnits="userSpaceOnUse" x="0" y="111" width="361" height="64">
<rect width="361" height="64" transform="translate(0 111)" fill="white"/>
</mask>
<g mask="url(#mask0_83_2648)">
<g filter="url(#filter1_d_83_2648)">
<path d="M9.68145 176V171.14H22.3714C24.8914 171.14 26.1514 170.06 26.1514 167.9V14C26.1514 11.84 24.8914 10.76 22.3714 10.76H9.68145V5.89999H72.8615C86.3614 5.89999 97.8814 9.58999 107.421 16.97C117.141 24.35 122.001 33.89 122.001 45.59C122.001 54.59 119.571 62.51 114.711 69.35C110.031 76.01 103.731 81.05 95.8114 84.47C107.151 86.99 116.331 92.12 123.351 99.86C130.551 107.6 134.151 117.95 134.151 130.91C134.151 143.69 128.841 154.4 118.221 163.04C107.601 171.68 94.7314 176 79.6114 176H9.68145ZM78.2614 89.33H48.2914V168.44H78.2614C89.0614 168.44 97.4314 164.48 103.371 156.56C109.491 148.64 112.551 139.37 112.551 128.75C112.551 118.13 109.491 108.95 103.371 101.21C97.4314 93.29 89.0614 89.33 78.2614 89.33ZM67.1914 13.46H48.2914V82.58H68.8114C79.4315 82.58 87.3515 78.98 92.5714 71.78C97.7914 64.58 100.401 56.21 100.401 46.67C100.401 36.95 97.7015 29.03 92.3015 22.91C86.9015 16.61 78.5314 13.46 67.1914 13.46ZM292.302 176V171.14H304.992C307.512 171.14 308.772 170.06 308.772 167.9V29.93L252.342 176H243.162L186.732 33.98V167.36C186.732 169.88 187.992 171.14 190.512 171.14H203.202V176H161.082V171.14H173.772C176.292 171.14 177.552 169.88 177.552 167.36V14C177.552 11.84 176.292 10.76 173.772 10.76H161.082V5.89999H199.692L254.772 145.49L308.772 5.89999H347.382V10.76H334.692C332.172 10.76 330.912 12.02 330.912 14.54V167.9C330.912 170.06 332.172 171.14 334.692 171.14H347.382V176H292.302Z" fill="black"/>
</g>
</g>
<mask id="mask1_83_2648" style="mask-type:alpha" maskUnits="userSpaceOnUse" x="4" y="0" width="361" height="64">
<rect width="361" height="64" transform="translate(4)" fill="white"/>
</mask>
<g mask="url(#mask1_83_2648)">
<g filter="url(#filter2_d_83_2648)">
<path d="M10.1814 176V171.14H22.8714C25.3914 171.14 26.6514 170.06 26.6514 167.9V14C26.6514 11.84 25.3914 10.76 22.8714 10.76H10.1814V5.89999H73.3615C86.8614 5.89999 98.3814 9.58999 107.921 16.97C117.641 24.35 122.501 33.89 122.501 45.59C122.501 54.59 120.071 62.51 115.211 69.35C110.531 76.01 104.231 81.05 96.3114 84.47C107.651 86.99 116.831 92.12 123.851 99.86C131.051 107.6 134.651 117.95 134.651 130.91C134.651 143.69 129.341 154.4 118.721 163.04C108.101 171.68 95.2314 176 80.1114 176H10.1814ZM78.7614 89.33H48.7914V168.44H78.7614C89.5614 168.44 97.9314 164.48 103.871 156.56C109.991 148.64 113.051 139.37 113.051 128.75C113.051 118.13 109.991 108.95 103.871 101.21C97.9314 93.29 89.5614 89.33 78.7614 89.33ZM67.6914 13.46H48.7914V82.58H69.3114C79.9315 82.58 87.8515 78.98 93.0714 71.78C98.2914 64.58 100.901 56.21 100.901 46.67C100.901 36.95 98.2015 29.03 92.8015 22.91C87.4015 16.61 79.0314 13.46 67.6914 13.46ZM292.802 176V171.14H305.492C308.012 171.14 309.272 170.06 309.272 167.9V29.93L252.842 176H243.662L187.232 33.98V167.36C187.232 169.88 188.492 171.14 191.012 171.14H203.702V176H161.582V171.14H174.272C176.792 171.14 178.052 169.88 178.052 167.36V14C178.052 11.84 176.792 10.76 174.272 10.76H161.582V5.89999H200.192L255.272 145.49L309.272 5.89999H347.882V10.76H335.192C332.672 10.76 331.412 12.02 331.412 14.54V167.9C331.412 170.06 332.672 171.14 335.192 171.14H347.882V176H292.802Z" fill="black"/>
</g>
</g>
<defs>
<filter id="filter0_d_83_2648" x="28.2549" y="78.7744" width="300.875" height="29.7969" filterUnits="userSpaceOnUse" color-interpolation-filters="sRGB">
<feFlood flood-opacity="0" result="BackgroundImageFix"/>
<feColorMatrix in="SourceAlpha" type="matrix" values="0 0 0 0 0 0 0 0 0 0 0 0 0 0 0 0 0 0 127 0" result="hardAlpha"/>
<feOffset dy="4"/>
<feGaussianBlur stdDeviation="2"/>
<feComposite in2="hardAlpha" operator="out"/>
<feColorMatrix type="matrix" values="0 0 0 0 0 0 0 0 0 0 0 0 0 0 0 0 0 0 0.25 0"/>
<feBlend mode="normal" in2="BackgroundImageFix" result="effect1_dropShadow_83_2648"/>
<feBlend mode="normal" in="SourceGraphic" in2="effect1_dropShadow_83_2648" result="shape"/>
</filter>
<filter id="filter1_d_83_2648" x="5.68146" y="5.8999" width="345.7" height="178.1" filterUnits="userSpaceOnUse" color-interpolation-filters="sRGB">
<feFlood flood-opacity="0" result="BackgroundImageFix"/>
<feColorMatrix in="SourceAlpha" type="matrix" values="0 0 0 0 0 0 0 0 0 0 0 0 0 0 0 0 0 0 127 0" result="hardAlpha"/>
<feOffset dy="4"/>
<feGaussianBlur stdDeviation="2"/>
<feComposite in2="hardAlpha" operator="out"/>
<feColorMatrix type="matrix" values="0 0 0 0 0 0 0 0 0 0 0 0 0 0 0 0 0 0 0.25 0"/>
<feBlend mode="normal" in2="BackgroundImageFix" result="effect1_dropShadow_83_2648"/>
<feBlend mode="normal" in="SourceGraphic" in2="effect1_dropShadow_83_2648" result="shape"/>
</filter>
<filter id="filter2_d_83_2648" x="6.18146" y="5.8999" width="345.7" height="178.1" filterUnits="userSpaceOnUse" color-interpolation-filters="sRGB">
<feFlood flood-opacity="0" result="BackgroundImageFix"/>
<feColorMatrix in="SourceAlpha" type="matrix" values="0 0 0 0 0 0 0 0 0 0 0 0 0 0 0 0 0 0 127 0" result="hardAlpha"/>
<feOffset dy="4"/>
<feGaussianBlur stdDeviation="2"/>
<feComposite in2="hardAlpha" operator="out"/>
<feColorMatrix type="matrix" values="0 0 0 0 0 0 0 0 0 0 0 0 0 0 0 0 0 0 0.25 0"/>
<feBlend mode="normal" in2="BackgroundImageFix" result="effect1_dropShadow_83_2648"/>
<feBlend mode="normal" in="SourceGraphic" in2="effect1_dropShadow_83_2648" result="shape"/>
</filter>
</defs>
</svg>
