<svg width="30" height="30" viewBox="0 0 30 30" fill="none" xmlns="http://www.w3.org/2000/svg">
<rect width="30" height="30" rx="4" fill="#DBFFFC"/>
<path fill-rule="evenodd" clip-rule="evenodd" d="M14.2481 21.1694C14.2224 22.4447 13.198 23.4598 11.9544 23.4424C10.7108 23.4248 9.71395 22.3814 9.72234 21.1058C9.73073 19.8302 10.7412 18.8005 11.9849 18.8003C12.5913 18.8066 13.1705 19.0598 13.5949 19.504C14.0193 19.9483 14.2543 20.5474 14.2481 21.1694Z" stroke="#38A9F0" stroke-width="1.5" stroke-linecap="round" stroke-linejoin="round"/>
<path fill-rule="evenodd" clip-rule="evenodd" d="M25.0272 21.1694C25.0015 22.4447 23.9771 23.4598 22.7335 23.4424C21.4899 23.4248 20.4931 22.3814 20.5015 21.1058C20.5099 19.8302 21.5203 18.8005 22.764 18.8003C23.3704 18.8066 23.9496 19.0598 24.374 19.504C24.7984 19.9483 25.0334 20.5474 25.0272 21.1694Z" stroke="#38A9F0" stroke-width="1.5" stroke-linecap="round" stroke-linejoin="round"/>
<path d="M20.2343 21.9868C20.6856 21.9868 21.0516 21.6208 21.0516 21.1695C21.0516 20.7181 20.6856 20.3522 20.2343 20.3522V21.9868ZM14.2481 20.3522C13.7967 20.3522 13.4308 20.7181 13.4308 21.1695C13.4308 21.6208 13.7967 21.9868 14.2481 21.9868V20.3522ZM19.4212 21.1695C19.4212 21.6208 19.787 21.9868 20.2385 21.9868C20.6899 21.9868 21.0558 21.6208 21.0558 21.1695H19.4212ZM21.0558 15.4298C21.0558 14.9784 20.6899 14.6125 20.2385 14.6125C19.787 14.6125 19.4212 14.9784 19.4212 15.4298H21.0558ZM20.2385 20.3522C19.787 20.3522 19.4212 20.7181 19.4212 21.1695C19.4212 21.6208 19.787 21.9868 20.2385 21.9868V20.3522ZM20.5052 21.9868C20.9565 21.9868 21.3225 21.6208 21.3225 21.1695C21.3225 20.7181 20.9565 20.3522 20.5052 20.3522V21.9868ZM25.0137 20.3524C24.5624 20.3622 24.2045 20.7359 24.2143 21.1872C24.224 21.6385 24.5978 21.9964 25.0491 21.9866L25.0137 20.3524ZM27.4231 18.6184L28.2403 18.604C28.2395 18.5618 28.2355 18.5199 28.2283 18.4783L27.4231 18.6184ZM27.6737 15.2898C27.5963 14.845 27.1731 14.5472 26.7284 14.6246C26.2836 14.702 25.9859 15.1251 26.0632 15.5698L27.6737 15.2898ZM20.2342 9.5103C19.7828 9.5103 19.4168 9.87623 19.4168 10.3276C19.4168 10.779 19.7828 11.1449 20.2342 11.1449V9.5103ZM24.0284 10.3276V11.1449L24.0336 11.1449L24.0284 10.3276ZM26.4243 12.8787L25.6078 12.8439C25.6053 12.9024 25.6091 12.9611 25.6191 13.0189L26.4243 12.8787ZM26.0632 15.5698C26.1406 16.0145 26.5639 16.3124 27.0086 16.235C27.4534 16.1575 27.7512 15.7344 27.6737 15.2898L26.0632 15.5698ZM21.0515 10.3276C21.0515 9.87623 20.6856 9.5103 20.2342 9.5103C19.7828 9.5103 19.4168 9.87623 19.4168 10.3276H21.0515ZM19.4168 15.4298C19.4168 15.8812 19.7828 16.2471 20.2342 16.2471C20.6856 16.2471 21.0515 15.8812 21.0515 15.4298H19.4168ZM19.4168 10.3276C19.4168 10.779 19.7828 11.1449 20.2342 11.1449C20.6856 11.1449 21.0515 10.779 21.0515 10.3276H19.4168ZM20.2342 9.45582L19.4168 9.45059V9.45582H20.2342ZM19.1036 8.28216L19.1083 7.46485H19.1036V8.28216ZM8.91964 8.28216V7.46484L8.91574 7.46487L8.91964 8.28216ZM7.78808 9.45364H8.6054L8.60538 9.44991L7.78808 9.45364ZM7.78808 19.9969L8.60539 20.0006V19.9969H7.78808ZM8.91964 21.1684L8.91574 21.9857H8.91964V21.1684ZM9.71758 21.9857C10.169 21.9857 10.5349 21.6198 10.5349 21.1684C10.5349 20.717 10.169 20.3511 9.71758 20.3511V21.9857ZM20.2363 14.6114C19.785 14.6114 19.419 14.9773 19.419 15.4287C19.419 15.8801 19.785 16.246 20.2363 16.246V14.6114ZM26.8706 16.246C27.322 16.246 27.6879 15.8801 27.6879 15.4287C27.6879 14.9773 27.322 14.6114 26.8706 14.6114V16.246ZM1.92308 9.64434C1.47169 9.64434 1.10577 10.0103 1.10577 10.4616C1.10577 10.913 1.47169 11.279 1.92308 11.279V9.64434ZM5.24871 11.279C5.70009 11.279 6.06601 10.913 6.06601 10.4616C6.06601 10.0103 5.70009 9.64434 5.24871 9.64434V11.279ZM2.98558 12.9136C2.5342 12.9136 2.16827 13.2795 2.16827 13.7309C2.16827 14.1823 2.5342 14.5482 2.98558 14.5482V12.9136ZM5.11058 14.5482C5.56196 14.5482 5.92789 14.1823 5.92789 13.7309C5.92789 13.2795 5.56196 12.9136 5.11058 12.9136V14.5482ZM3.63371 16.1828C3.18232 16.1828 2.8164 16.5487 2.8164 17.0001C2.8164 17.4515 3.18232 17.8174 3.63371 17.8174V16.1828ZM5.11058 17.8174C5.56196 17.8174 5.92789 17.4515 5.92789 17.0001C5.92789 16.5487 5.56196 16.1828 5.11058 16.1828V17.8174ZM20.2343 20.3522H14.2481V21.9868H20.2343V20.3522ZM21.0558 21.1695V15.4298H19.4212V21.1695H21.0558ZM20.2385 21.9868H20.5052V20.3522H20.2385V21.9868ZM25.0491 21.9866C26.8647 21.9472 28.2721 20.4155 28.2403 18.604L26.6059 18.6328C26.6227 19.5832 25.8908 20.3333 25.0137 20.3524L25.0491 21.9866ZM28.2283 18.4783L27.6737 15.2898L26.0632 15.5698L26.6179 18.7584L28.2283 18.4783ZM20.2342 11.1449L24.0284 11.1449V9.5103H20.2342V11.1449ZM24.0336 11.1449C24.4555 11.1422 24.8646 11.3168 25.164 11.6356L26.3556 10.5166C25.7493 9.87112 24.9068 9.5046 24.0231 9.51033L24.0336 11.1449ZM25.164 11.6356C25.4643 11.9553 25.6271 12.3918 25.6078 12.8439L27.2409 12.9135C27.2787 12.0279 26.961 11.1613 26.3556 10.5166L25.164 11.6356ZM25.6191 13.0189L26.0632 15.5698L27.6737 15.2898L27.2295 12.7385L25.6191 13.0189ZM19.4168 10.3276V15.4298H21.0515V10.3276H19.4168ZM21.0515 10.3276V9.45582H19.4168V10.3276H21.0515ZM21.0515 9.46105C21.0548 8.94129 20.8568 8.43755 20.4947 8.06169L19.3175 9.19568C19.3795 9.2601 19.4174 9.35145 19.4168 9.45059L21.0515 9.46105ZM20.4947 8.06169C20.132 7.68511 19.6338 7.46786 19.1083 7.46485L19.0991 9.09946C19.1771 9.09991 19.2561 9.13199 19.3175 9.19568L20.4947 8.06169ZM19.1036 7.46485L8.91964 7.46484V9.09947H19.1036V7.46485ZM8.91574 7.46487C8.39069 7.46737 7.89248 7.68387 7.52945 8.05971L8.70515 9.19536C8.76655 9.1318 8.84557 9.09983 8.92355 9.09946L8.91574 7.46487ZM7.52945 8.05971C7.1671 8.43484 6.96841 8.93794 6.97078 9.45737L8.60538 9.44991C8.60493 9.35083 8.64308 9.25962 8.70515 9.19536L7.52945 8.05971ZM6.97077 9.45364V19.9969H8.60539L8.6054 9.45364H6.97077ZM6.97078 19.9932C6.96841 20.5126 7.1671 21.0157 7.52945 21.3908L8.70515 20.2552C8.64308 20.1909 8.60494 20.0997 8.60539 20.0006L6.97078 19.9932ZM7.52945 21.3908C7.89248 21.7666 8.39069 21.9832 8.91574 21.9857L8.92355 20.3511C8.84557 20.3507 8.76654 20.3187 8.70515 20.2552L7.52945 21.3908ZM8.91964 21.9857H9.71758V20.3511H8.91964V21.9857ZM20.2363 16.246H26.8706V14.6114H20.2363V16.246ZM1.92308 11.279H5.24871V9.64434H1.92308V11.279ZM2.98558 14.5482H5.11058V12.9136H2.98558V14.5482ZM3.63371 17.8174H5.11058V16.1828H3.63371V17.8174Z" fill="#38A9F0"/>
</svg>
